<svg xmlns="http://www.w3.org/2000/svg" width="512" height="512" viewBox="0 0 512 512">
  <rect width="512" height="512" rx="64" fill="#863bff"/>
  <g transform="translate(0.000000,512.000000) scale(0.100000,-0.100000)" fill="#ffffff" stroke="none">
    <path d="M1506 4048 c90 -113 241 -257 374 -355 64 -47 140 -88 140 -74 0 25 -108 166 -182 237 -112 107 -218 175 -327 209 l-24 7 19 -24z"/>
    <path d="M2030 4028 c0 -78 37 -266 58 -296 58 -80 84 -77 86 11 0 47 -8 71 -57 172 -31 64 -64 126 -72 138 -14 20 -15 19 -15 -25z"/>
    <path d="M2810 4006 c-177 -38 -322 -196 -374 -406 -9 -36 -23 -155 -32 -265 -21 -269 -27 -289 -114 -372 -53 -50 -141 -152 -156 -181 0 -1 -98 34 -216 79 l-214 82 -11 59 c-20 104 -82 182 -170 214 -61 21 -150 17 -208 -10 -91 -42 -89 -47 38 -101 61 -27 116 -52 121 -56 8 -7 -38 -165 -53 -181 -3 -4 -62 17 -129 47 -68 30 -128 55 -134 55 -13 0 -2 -77 18 -125 21 -51 71 -103 128 -133 42 -22 65 -27 126 -27 63 0 83 4 122 27 l48 26 196 -83 c109 -47 201 -88 205 -92 5 -5 -7 -56 -26 -115 -51 -158 -68 -268 -67 -448 0 -253 44 -412 97 -359 9 8 23 74 35 159 20 140 55 293 82 359 11 28 13 3 14 -191 0 -197 3 -232 22 -301 36 -132 77 -203 167 -293 l81 -80 -93 -49 c-58 -30 -109 -65 -133 -91 -45 -49 -51 -69 -17 -61 12 3 45 9 73 13 l51 6 9 -41 9 -41 39 27 c35 25 47 28 120 28 67 0 91 -5 140 -28 32 -15 62 -27 67 -27 4 0 11 36 15 81 l7 81 36 -6 c98 -17 243 -27 302 -21 75 8 71 12 85 -91 10 -80 14 -82 80 -50 74 36 151 34 212 -7 l41 -26 14 42 14 42 92 -2 c88 -3 91 -2 81 17 -16 30 -79 88 -143 132 -33 22 -55 43 -50 47 4 4 29 24 55 45 85 67 119 147 139 321 6 58 16 105 20 105 5 0 9 37 9 82 l0 81 100 -97 c141 -137 193 -153 220 -70 16 47 -1 210 -35 352 -74 305 -247 626 -443 820 l-73 73 12 158 c24 334 -30 546 -183 707 -56 58 -89 83 -152 114 -119 59 -203 71 -316 46z m-58 -71 c-28 -20 -52 -37 -52 -39 0 -2 10 -2 23 0 12 3 -4 -8 -37 -25 -32 -16 -76 -46 -98 -68 -32 -30 -38 -33 -28 -13 36 70 113 137 187 165 60 22 62 18 5 -20z m288 -29 c0 -11 -19 -15 -25 -6 -3 5 1 10 9 10 9 0 16 -2 16 -4z m-45 -45 c3 -5 1 -12 -5 -16 -5 -3 -10 1 -10 9 0 18 6 21 15 7z m-260 -181 c29 -18 85 -88 85 -107 0 -5 4 -14 9 -21 6 -11 19 -4 52 27 66 61 150 101 216 101 65 0 100 -17 146 -70 88 -104 93 -312 9 -435 -15 -22 -47 -55 -72 -73 -48 -37 -40 -37 -185 -8 -88 17 -307 21 -369 7 -36 -9 -41 -7 -68 22 -72 79 -111 226 -91 344 25 141 99 233 191 233 27 0 57 -8 77 -20z m-1200 -510 c3 -5 1 -10 -4 -10 -6 0 -11 5 -11 10 0 6 2 10 4 10 3 0 8 -4 11 -10z m60 -40 c3 -5 1 -10 -4 -10 -6 0 -11 5 -11 10 0 6 2 10 4 10 3 0 8 -4 11 -10z m1352 -85 c201 -26 309 -98 371 -248 42 -99 42 -99 98 -462 16 -106 31 -136 125 -267 35 -48 42 -67 50 -133 12 -98 -4 -284 -32 -367 -58 -174 -215 -309 -406 -352 -207 -46 -560 9 -720 113 -205 132 -283 341 -268 721 4 96 11 182 15 191 5 8 14 65 20 125 15 149 27 218 52 294 70 219 206 350 399 385 99 18 156 18 296 0z m-682 -191 c-74 -129 -118 -297 -131 -498 -3 -50 -9 -100 -14 -111 -48 -105 -92 -274 -115 -444 -16 -117 -21 -135 -29 -110 -19 52 -28 124 -33 265 -4 128 -2 183 12 265 43 259 145 485 296 655 30 34 55 61 56 60 2 -2 -17 -38 -42 -82z m1387 -154 c158 -228 269 -499 308 -760 13 -88 10 -192 -6 -197 -32 -11 -325 289 -418 426 -45 67 -48 77 -61 178 -8 58 -25 163 -37 232 -26 144 -27 186 -9 291 l14 74 71 -74 c39 -41 101 -118 138 -170z m-2289 90 c22 0 36 -4 32 -9 -8 -15 59 -24 113 -16 44 6 46 5 27 -9 -34 -26 -114 -40 -161 -27 -41 11 -134 74 -134 91 0 5 19 0 43 -10 23 -11 59 -20 80 -20z"/>
    <path d="M2595 3510 c-17 -34 -18 -40 -6 -40 5 0 12 8 14 18 3 9 5 -3 5 -28 0 -38 -1 -41 -9 -20 l-8 25 2 -25 c2 -31 33 -39 52 -13 27 34 13 113 -20 113 -8 0 -21 -13 -30 -30z"/>
    <path d="M3080 3501 c-5 -11 -10 -28 -9 -38 0 -16 1 -16 8 2 7 16 9 11 12 -22 3 -24 1 -43 -3 -43 -5 0 -8 6 -8 14 0 8 -4 18 -10 21 -17 10 -11 -11 9 -36 19 -23 19 -24 40 -5 34 31 24 126 -14 126 -8 0 -19 -9 -25 -19z"/>
    <path d="M2775 3487 c-16 -6 -39 -18 -50 -24 l-20 -13 20 -12 c11 -6 37 -29 57 -51 l38 -40 77 35 c43 20 86 38 96 42 29 9 19 23 -35 46 -62 27 -141 35 -183 17z"/>
    <path d="M3102 2821 c-8 -4 -12 -19 -10 -32 2 -18 9 -24 28 -24 28 0 39 27 20 50 -14 17 -20 18 -38 6z"/>
    <path d="M3207 2714 c-13 -13 -7 -65 8 -70 23 -9 46 16 43 45 -3 26 -35 41 -51 25z"/>
    <path d="M3083 2634 c-7 -20 9 -49 28 -49 22 0 18 59 -4 63 -9 2 -20 -4 -24 -14z"/>
    <path d="M2267 2183 c-11 -17 -27 -167 -27 -252 0 -103 23 -247 49 -305 l18 -41 7 55 7 54 25 -73 c52 -153 104 -225 197 -270 75 -37 185 -66 287 -76 l75 -7 -95 48 c-82 41 -109 62 -197 150 -105 106 -163 181 -90 117 33 -29 151 -103 164 -103 3 0 -20 27 -51 60 -81 88 -135 185 -193 345 -36 100 -46 104 -38 15 3 -41 9 -88 12 -104 10 -53 -13 -18 -51 76 -20 51 -49 144 -65 207 -16 62 -31 109 -34 104z"/>
    <path d="M3590 2696 c0 -9 7 -16 16 -16 9 0 14 5 12 12 -6 18 -28 21 -28 4z"/>
    <path d="M3530 2235 c0 -19 166 -218 219 -261 75 -63 100 -71 50 -16 -19 20 -46 50 -59 66 l-25 29 25 -6 c23 -6 22 -3 -11 26 -68 61 -199 167 -199 162z"/>
    <path d="M1513 3594 c46 -31 242 -119 287 -129 33 -7 120 11 120 26 0 14 -54 60 -87 75 -33 14 -273 54 -328 54 l-30 0 38 -26z"/>
  </g>
</svg>